PathFileType	4	(x/y/z)	S10_PSF_T11
DataRate	CameraRate	NumFrames	NumMarkers	Units	OrigDataRate	OrigDataStartFrame	OrigNumFrames
240	240	7	51	mm	240	58	460
Frame#	Time	Sternum			R.Acromium			L.Acromium			Top.Head			R.ASIS			L.ASIS			R.PSIS			L.PSIS			R.Great.Tro			L.Great.Tro			R.Iliac.Crest			L.Iliac.Crest			V.Sacral			R.Thigh.Upper.Post			R.Thigh.Lower.Ant			R.Thigh.Lower.Post			R.Thigh.Upper.Ant			R.Knee.Lat			R.Knee.Med			R.Shank.Upper.Post			R.Shank.Lower.Ant			R.Shank.Lower.Post			R.Shank.Upper.Ant			R.Ankle.Lat			R.Ankle.Med			R.Heel.Upper			R.Heel.Med			R.Heel.Lat			R.Toe.Lat			R.Toe.Med			R.Toe.Tip			L.Thigh.Upper.Post			L.Thigh.Lower.Ant			L.Thigh.Lower.Post			L.Thigh.Upper.Ant			L.Knee.Lat			L.Knee.Med			L.Shank.Upper.Post			L.Shank.Lower.Ant			L.Shank.Lower.Post			L.Shank.Upper.Ant			L.Ankle.Lat			L.Ankle.Med			L.Heel.Upper			L.Heel.Med			L.Heel.Lat			L.Toe.Lat			L.Toe.Med			L.Toe.Tip			Cervical.Spine			Back			
		X1	Y1	Z1	X2	Y2	Z2	X3	Y3	Z3	X4	Y4	Z4	X5	Y5	Z5	X6	Y6	Z6	X7	Y7	Z7	X8	Y8	Z8	X9	Y9	Z9	X10	Y10	Z10	X11	Y11	Z11	X12	Y12	Z12	X13	Y13	Z13	X14	Y14	Z14	X15	Y15	Z15	X16	Y16	Z16	X17	Y17	Z17	X18	Y18	Z18	X19	Y19	Z19	X20	Y20	Z20	X21	Y21	Z21	X22	Y22	Z22	X23	Y23	Z23	X24	Y24	Z24	X25	Y25	Z25	X26	Y26	Z26	X27	Y27	Z27	X28	Y28	Z28	X29	Y29	Z29	X30	Y30	Z30	X31	Y31	Z31	X32	Y32	Z32	X33	Y33	Z33	X34	Y34	Z34	X35	Y35	Z35	X36	Y36	Z36	X37	Y37	Z37	X38	Y38	Z38	X39	Y39	Z39	X40	Y40	Z40	X41	Y41	Z41	X42	Y42	Z42	X43	Y43	Z43	X44	Y44	Z44	X45	Y45	Z45	X46	Y46	Z46	X47	Y47	Z47	X48	Y48	Z48	X49	Y49	Z49	X50	Y50	Z50	X51	Y51	Z51	

58	0.2375	-1139.5	1265.3	316.5	-1269.1	1422.9	463.69	-1259.5	1438.2	157.22	-1313.6	1737.3	332.53	-1196.3	991.43	420.84	NaN	NaN	NaN	NaN	NaN	NaN	NaN	NaN	NaN	-1280.6	906.36	482.33	-1246.3	967.42	129.84	-1302.1	1068.5	464.3	-1262.5	1101	169.19	-1418.3	987	282.97	-1222.6	704.5	492.58	-1143.7	636.19	463.64	-1206.8	615.27	488.57	-1153.6	727.63	464.82	-1191.2	491.9	458.85	-1166.2	486.74	325.33	-1391.7	404.91	445.47	-1411.7	317.49	442.4	-1453.9	360.92	439.58	-1329	361.86	446.52	-1527.2	278.43	424.02	-1502.9	272.96	342.69	-1578.8	311.16	368.16	-1595.5	294.06	340.49	-1600.2	301.46	400.28	-1568.8	135.05	450.82	NaN	NaN	NaN	NaN	NaN	NaN	-1232.9	678.16	144.43	-1144.5	616.03	175.68	-1216.5	587.42	172.22	-1155	702.79	149.39	-1169.4	509.81	193.97	-1160.6	521.76	319.43	-1239.5	301.76	198.43	-1182	210.4	223.15	-1243.9	223.12	212.18	-1178.6	286	209.01	-1230	106.6	228.79	-1216.8	118.36	319.38	-1298.8	76.98	276.81	-1289.7	45.285	308.55	-1293.6	49.209	244.65	-1117.9	42.359	205.27	-1089.9	45.483	315.52	-1034.5	56.022	264.87	-1348.4	1488.9	319.33	-1431.9	1280	307.58
59	0.24167	-1134.6	1266.5	317	-1264.9	1423.9	463.67	-1253.8	1439.6	157.25	-1308.1	1738.5	332.58	-1191.4	992.96	420.58	NaN	NaN	NaN	NaN	NaN	NaN	NaN	NaN	NaN	-1275.3	908	482.23	-1241.9	968.08	129.54	-1297.3	1069.9	463.91	-1257.5	1102	168.88	-1413.4	988.23	282.71	-1214.1	706.61	492.86	-1135	639.41	463.75	-1197.5	617.6	489.04	-1146.2	730.67	464.57	-1180.8	494.28	459.11	-1155.6	489.44	325.42	-1380.7	405.68	445.31	-1399.5	317.94	442.42	-1442.3	361.04	439.55	-1320	362.87	447.11	-1514.8	277.81	423.92	-1490.6	272.32	342.8	-1567.6	309.27	367.95	-1584	291.59	340.29	-1588.6	299.26	400.14	-1553.5	133.98	451.57	NaN	NaN	NaN	NaN	NaN	NaN	-1230.4	678.76	144.53	-1141.9	616.2	175.26	-1214.7	587.9	172.29	-1152.1	702.78	149.1	-1168.1	509.92	193.85	-1159	521.79	319.04	-1238.9	301.98	198.32	-1181.7	210.41	223.06	-1243.4	223.4	212.04	-1178.1	286.03	208.91	-1229.9	106.67	228.79	-1216.7	118.5	319.37	-1298.8	77.092	276.81	-1289.6	45.371	308.55	-1293.5	49.295	244.64	-1117.9	42.35	205.22	-1090	45.373	315.67	-1034.5	55.938	264.85	-1343.4	1490	318.85	-1426.9	1281.1	306.39
60	0.24583	-1129.8	1267.8	317.48	-1260.7	1424.8	463.64	-1248.1	1441	157.29	-1302.6	1739.8	332.66	-1186.5	994.49	420.29	NaN	NaN	NaN	-1387.9	1015.6	322.03	-1389.8	1033.6	242.2	-1270	909.67	482.15	-1237.5	968.72	129.25	-1292.5	1071.4	463.54	-1252.5	1102.9	168.55	-1408.5	989.44	282.49	-1205.7	708.77	493.12	-1126.5	642.67	463.82	-1188.2	619.98	489.5	-1138.8	733.74	464.28	-1170.4	496.69	459.34	-1145	492.2	325.51	-1369.8	406.29	445.15	-1387	318.21	442.4	-1430.8	360.97	439.5	-1310.8	363.73	447.66	-1502.4	276.96	423.79	-1478.3	271.46	342.9	-1556.4	307.08	367.69	-1572.4	288.82	340.05	-1577.1	296.76	399.96	-1538.1	132.72	452.32	-1505.2	109.21	348.39	NaN	NaN	NaN	-1228	679.36	144.64	-1139.5	616.37	174.86	-1212.9	588.39	172.37	-1149.3	702.75	148.83	-1166.9	510.05	193.73	-1157.6	521.76	318.74	-1238.3	302.2	198.22	-1181.5	210.44	222.98	-1242.9	223.7	211.9	-1177.6	286.06	208.81	-1229.8	106.75	228.79	-1216.5	118.64	319.36	-1298.7	77.208	276.8	-1289.6	45.463	308.54	-1293.5	49.38	244.64	-1117.9	42.342	205.17	-1090.2	45.253	315.82	-1034.4	55.855	264.83	-1338.4	1491.1	318.38	-1421.9	1282.3	305.23
61	0.25	-1124.9	1269.1	317.92	-1256.5	1425.7	463.6	-1242.5	1442.4	157.34	-1297.1	1741	332.75	-1181.7	996.01	419.98	NaN	NaN	NaN	-1383.6	1016.7	321.99	-1385.4	1034.5	242.08	-1264.7	911.35	482.09	-1233.2	969.35	128.94	-1287.7	1072.9	463.17	-1247.6	1103.8	168.2	-1403.6	990.64	282.33	-1197.3	710.96	493.35	-1117.9	645.97	463.84	-1179	622.42	489.93	-1131.4	736.81	463.95	-1160.2	499.14	459.54	-1134.6	495	325.61	-1358.8	406.74	444.99	-1374.5	318.3	442.34	-1419.1	360.69	439.42	-1301.4	364.44	448.16	-1489.8	275.88	423.64	-1465.9	270.39	342.99	-1545	304.62	367.41	-1560.7	285.76	339.77	-1565.5	293.95	399.74	-1522.5	131.29	453.06	-1491.2	107.07	349.19	NaN	NaN	NaN	-1225.6	679.97	144.77	-1137	616.53	174.48	-1211.2	588.9	172.47	-1146.6	702.7	148.58	-1165.7	510.19	193.61	-1156.4	521.66	318.55	-1237.8	302.43	198.13	-1181.3	210.47	222.89	-1242.5	224.01	211.78	-1177.2	286.11	208.71	-1229.7	106.83	228.79	-1216.4	118.78	319.35	-1298.7	77.329	276.8	-1289.6	45.562	308.55	-1293.5	49.463	244.64	-1117.8	42.336	205.12	-1090.4	45.124	315.96	-1034.4	55.773	264.81	-1333.4	1492.1	317.92	-1416.9	1283.4	304.09
62	0.25417	-1120.1	1270.4	318.33	-1252.3	1426.7	463.55	-1236.9	1443.8	157.39	-1291.7	1742.2	332.85	-1176.8	997.52	419.66	NaN	NaN	NaN	-1379.1	1017.9	321.95	-1380.9	1035.5	241.96	-1259.3	913.04	482.05	-1228.9	969.96	128.64	-1282.9	1074.4	462.8	-1242.6	1104.7	167.82	-1398.7	991.82	282.21	-1188.9	713.19	493.56	-1109.5	649.3	463.8	-1169.8	624.91	490.34	-1124.2	739.89	463.58	-1150.1	501.61	459.72	-1124.4	497.83	325.71	-1347.9	407.02	444.84	-1361.9	318.22	442.25	-1407.5	360.2	439.32	-1291.8	364.98	448.58	-1477.2	274.57	423.48	-1453.4	269.11	343.06	-1533.6	301.88	367.1	-1548.8	282.43	339.46	-1553.8	290.84	399.49	-1506.7	129.7	453.78	-1476.4	104.86	350.03	NaN	NaN	NaN	-1223.2	680.59	144.92	-1134.7	616.67	174.11	-1209.6	589.42	172.58	-1143.9	702.64	148.35	-1164.5	510.33	193.49	-1155.4	521.49	318.44	-1237.3	302.67	198.06	-1181.1	210.52	222.79	-1242.1	224.34	211.68	-1176.8	286.17	208.61	-1229.5	106.9	228.8	-1216.3	118.92	319.35	-1298.7	77.452	276.8	-1289.6	45.667	308.55	-1293.5	49.544	244.64	-1117.8	42.33	205.07	-1090.5	44.985	316.09	-1034.4	55.692	264.79	-1328.4	1493.2	317.48	-1412	1284.6	302.98
63	0.25833	-1115.3	1271.6	318.71	-1248.1	1427.6	463.5	-1231.4	1445.3	157.46	-1286.2	1743.3	332.97	-1171.9	999.01	419.32	NaN	NaN	NaN	-1374.4	1019	321.9	-1376.2	1036.4	241.84	-1253.9	914.74	482.02	-1224.7	970.56	128.34	-1278	1075.9	462.45	-1237.7	1105.6	167.43	-1393.9	992.97	282.12	-1180.7	715.45	493.75	-1101	652.64	463.71	-1160.7	627.43	490.72	-1116.9	742.97	463.17	-1140.1	504.09	459.87	-1114.4	500.69	325.82	-1337.1	407.13	444.68	-1349.1	317.97	442.14	-1395.8	359.5	439.2	-1281.8	365.37	448.93	-1464.5	273.02	423.29	-1440.8	267.62	343.13	-1522	298.85	366.75	-1536.8	278.82	339.12	-1542.1	287.44	399.21	-1490.8	127.94	454.5	-1461.1	102.57	350.9	NaN	NaN	NaN	-1220.9	681.22	145.07	-1132.4	616.79	173.77	-1207.9	589.94	172.71	-1141.3	702.56	148.16	-1163.5	510.48	193.36	-1154.5	521.28	318.41	-1236.8	302.9	197.99	-1181	210.57	222.7	-1241.6	224.68	211.59	-1176.5	286.23	208.51	-1229.4	106.98	228.81	-1216.2	119.06	319.35	-1298.6	77.579	276.81	-1289.6	45.778	308.56	-1293.5	49.624	244.65	-1117.8	42.324	205.02	-1090.7	44.838	316.22	-1034.3	55.611	264.77	-1323.4	1494.2	317.04	-1407	1285.7	301.89
64	0.2625	-1110.5	1272.9	319.05	-1243.8	1428.5	463.43	-1225.8	1446.7	157.52	-1280.7	1744.5	333.11	-1167.1	1000.5	418.97	NaN	NaN	NaN	-1369.7	1020.2	321.86	-1371.5	1037.4	241.73	-1248.5	916.42	482	-1220.5	971.15	128.04	-1273.1	1077.4	462.1	-1232.9	1106.4	167.02	-1389	994.09	282.08	-1172.4	717.74	493.92	-1092.7	655.99	463.55	-1151.7	629.99	491.07	-1109.7	746.03	462.72	-1130.3	506.58	460	-1104.6	503.57	325.94	-1326.3	407.08	444.53	-1336.4	317.56	441.99	-1384.1	358.61	439.06	-1271.5	365.63	449.2	-1451.7	271.25	423.08	-1428.2	265.94	343.19	-1510.4	295.56	366.39	-1524.7	274.93	338.76	-1530.3	283.73	398.9	-1474.8	126.04	455.21	-1445.3	100.24	351.79	NaN	NaN	NaN	-1218.6	681.85	145.24	-1130.2	616.89	173.46	-1206.3	590.47	172.84	-1138.7	702.45	147.99	-1162.5	510.63	193.23	-1153.7	521.03	318.45	-1236.3	303.15	197.93	-1180.9	210.64	222.6	-1241.2	225.04	211.52	-1176.2	286.3	208.41	-1229.3	107.05	228.83	-1216.1	119.19	319.36	-1298.6	77.709	276.82	-1289.5	45.894	308.58	-1293.5	49.703	244.66	-1117.8	42.318	204.98	-1090.9	44.684	316.32	-1034.3	55.531	264.76	-1318.3	1495.2	316.61	-1402	1286.8	300.83
